<?xml version="1.0" encoding="utf-8"?>
<!-- spx.graphics  -->
<svg version="1.1" id="Layer_1" xmlns="http://www.w3.org/2000/svg" xmlns:xlink="http://www.w3.org/1999/xlink" x="0px" y="0px"
	 viewBox="0 0 373 97.8" style="enable-background:new 0 0 373 97.8;" xml:space="preserve">
<style type="text/css">
	.st0{fill:#FFFFFF;}
	.st1{fill:#FFE70B;}
</style>
<g>
	<path d="M367.1,67.3H4.9c-1.6,0-2.8-1.3-2.8-2.8V6.1c0-1.6,1.3-2.8,2.8-2.8h362.2c1.6,0,2.8,1.3,2.8,2.8v58.3
		C370,66,368.7,67.3,367.1,67.3z"/>
	<path class="st0" d="M34.5,29.2v-8H22.1v9.2L42,37.1v11.5c0,6.2,0,9.1-13.7,9.1c-13.7,0-13.7-2.9-13.7-9.1v-5.6h7.5v8h12.5v-9.2
		l-19.9-6.6V23.6c0-6.2,0-9.1,13.7-9.1C42,14.5,42,17.4,42,23.6v5.6H34.5z"/>
	<path class="st0" d="M68.8,29.2v-8H56.3v29.6h12.5v-8h7.5v5.6c0,6.2,0,9.1-13.7,9.1c-13.7,0-13.7-2.9-13.7-9.1V23.6
		c0-6.2,0-9.1,13.7-9.1c13.7,0,13.7,2.9,13.7,9.1v5.6H68.8z"/>
	<path class="st0" d="M138.7,42.9l6.4,14.4h-8.2l-6.2-14h-5.5v14h-7.5V14.9h13.7c13.7,0,13.7,2.5,13.7,8.7v10.9
		C145.1,39.4,145.1,41.9,138.7,42.9z M137.6,21.6h-12.5v14.9h12.5V21.6z"/>
	<path class="st0" d="M160,21.6v11.1h16.8v6.7H160v11.1h17.4v6.7h-24.9V14.9h24.9v6.7H160z"/>
	<path class="st1" d="M208.9,36v0.2c7.2,0.8,7.2,3.6,7.2,8.6v3.7c0,6.2,0,8.7-13.7,8.7h-13.7V14.9h13.7c13.7,0,13.7,2.5,13.7,8.7
		v3.7C216.1,32.3,216.1,35.1,208.9,36z M208.6,21.6h-12.5v11.1h12.5V21.6z M208.6,39.4h-12.5v11.1h12.5V39.4z"/>
	<path class="st1" d="M277.3,48.2h-12.8l-2.1,9h-7.7l10-42.3h12.5l10,42.3h-7.7L277.3,48.2z M275.7,41.5L271,21.6h-0.2l-4.7,19.9
		H275.7z"/>
	<path class="st1" d="M313.1,42.9l6.4,14.4h-8.2l-6.2-14h-5.5v14h-7.5V14.9h13.7c13.7,0,13.7,2.5,13.7,8.7v10.9
		C319.5,39.4,319.5,41.9,313.1,42.9z M312,21.6h-12.5v14.9H312V21.6z"/>
	<path class="st1" d="M354.4,23.6v24.9c0,6.2,0,8.7-13.7,8.7H327V14.9h13.7C354.4,14.9,354.4,17.4,354.4,23.6z M346.9,21.6h-12.5
		v28.9h12.5V21.6z"/>
	<g>
		<path class="st0" d="M96.5,14.5c-13.7,0-13.7,2.9-13.7,9.1v24.9c0,6.2,0,9.1,13.7,9.1c13.7,0,13.7-2.9,13.7-9.1V23.6
			C110.2,17.4,110.2,14.5,96.5,14.5z M100.5,21.3L90.3,40.1V21.3H100.5z M91.3,50.9l11.5-21.1v21.1H91.3z"/>
	</g>
	<g>
		<path class="st1" d="M236.5,14.5c-13.7,0-13.7,2.9-13.7,9.1v24.9c0,6.2,0,9.1,13.7,9.1c13.7,0,13.7-2.9,13.7-9.1V23.6
			C250.2,17.4,250.2,14.5,236.5,14.5z M240.5,21.3l-10.2,18.9V21.3H240.5z M231.2,50.9l11.5-21.1v21.1H231.2z"/>
	</g>
	<g>
		<path class="st1" d="M32.2,78.8v-1.3c0-2,0-2.5-3.2-2.5s-3.2,0.5-3.2,2.5v9.6c0,2,0,2.5,3.2,2.5s3.2-0.5,3.2-2.5v-1.3h2.1v1.9
			c0,2.7,0,3.9-5.4,3.9s-5.4-1.2-5.4-3.9V76.9c0-2.7,0-3.9,5.4-3.9s5.4,1.2,5.4,3.9v1.9H32.2z"/>
		<path class="st1" d="M48.4,76.9v10.7c0,2.7,0,3.9-5.4,3.9s-5.4-1.2-5.4-3.9V76.9c0-2.7,0-3.9,5.4-3.9S48.4,74.2,48.4,76.9z
			 M46.2,87.1v-9.6c0-2,0-2.5-3.2-2.5c-3.2,0-3.2,0.5-3.2,2.5v9.6c0,2,0,2.5,3.2,2.5C46.2,89.6,46.2,89.1,46.2,87.1z"/>
		<path class="st1" d="M63.4,73.2v18.2h-3.6l-5.3-16.3h-0.1v16.3h-2.1V73.2h3.6l5.4,16.3h0.1V73.2H63.4z"/>
		<path class="st1" d="M67.4,91.4V73.2H77v1.9h-7.5v6.2h7.2v1.9h-7.2v8.1H67.4z"/>
		<path class="st1" d="M82.5,91.4h-2.1V73.2h2.1V91.4z"/>
		<path class="st1" d="M94.8,78.8v-1.3c0-2,0-2.5-3.2-2.5c-3.2,0-3.2,0.5-3.2,2.5v9.6c0,2,0,2.5,3.2,2.5c3.2,0,3.2-0.5,3.2-2.5v-3.9
			h-3.2v-1.9h5.4v6.3c0,2.7,0,3.9-5.4,3.9c-5.4,0-5.4-1.2-5.4-3.9V76.9c0-2.7,0-3.9,5.4-3.9c5.4,0,5.4,1.2,5.4,3.9v1.9H94.8z"/>
		<path class="st1" d="M111.3,73.2v14.4c0,2.7,0,3.9-5.3,3.9c-5.4,0-5.4-1.2-5.4-3.9V73.2h2.1v13.9c0,2,0,2.5,3.2,2.5
			c3.2,0,3.2-0.5,3.2-2.5V73.2H111.3z"/>
		<path class="st1" d="M122.7,85l3.1,6.4h-2.4l-3.1-6.3h-3.1v6.3h-2.1V73.2h5.4c5.4,0,5.4,1.1,5.4,3.7v4.4
			C125.8,83.6,125.8,84.7,122.7,85z M123.7,77.5c0-2,0-2.4-3.2-2.4h-3.2v8.1h3.2c3.2,0,3.2-0.3,3.2-2.4V77.5z"/>
		<path class="st1" d="M131.7,75.1v6.2h7.2v1.9h-7.2v6.2h7.5v1.9h-9.6V73.2h9.6v1.9H131.7z"/>
		<path class="st1" d="M172.1,73.2l-3.8,18.2h-3.7l-3.4-16.3h-0.1l-3.4,16.3h-3.7l-3.8-18.2h2.2l3.4,16.3h0.1l3.4-16.3h3.7l3.4,16.3
			h0.1l3.4-16.3H172.1z"/>
		<path class="st1" d="M177.2,91.4h-2.1V73.2h2.1V91.4z"/>
		<path class="st1" d="M190.6,73.2v1.9h-4.3v16.3h-2.1V75.1h-4.3v-1.9H190.6z"/>
		<path class="st1" d="M204,73.2v18.2h-2.1v-8.1h-6.4v8.1h-2.1V73.2h2.1v8.1h6.4v-8.1H204z"/>
		<path class="st1" d="M224.9,78.8v-1.3c0-2,0-2.5-3.2-2.5c-3.2,0-3.2,0.5-3.2,2.5v2.7L227,83v4.6c0,2.7,0,3.9-5.4,3.9
			c-5.4,0-5.4-1.2-5.4-3.9v-1.9h2.1v1.3c0,2,0,2.5,3.2,2.5c3.2,0,3.2-0.5,3.2-2.5v-2.7l-8.6-2.9v-4.6c0-2.7,0-3.9,5.4-3.9
			c5.4,0,5.4,1.2,5.4,3.9v1.9H224.9z"/>
		<path class="st1" d="M232.9,75.1v6.2h7.2v1.9h-7.2v6.2h7.5v1.9h-9.6V73.2h9.6v1.9H232.9z"/>
		<path class="st1" d="M253.4,73.2v1.9h-4.3v16.3h-2.1V75.1h-4.3v-1.9H253.4z"/>
		<path class="st1" d="M265.4,73.2v1.9h-4.3v16.3H259V75.1h-4.3v-1.9H265.4z"/>
		<path class="st1" d="M270.2,91.4h-2.1V73.2h2.1V91.4z"/>
		<path class="st1" d="M285.5,73.2v18.2h-3.6l-5.3-16.3h-0.1v16.3h-2.1V73.2h3.6l5.4,16.3h0.1V73.2H285.5z"/>
		<path class="st1" d="M297.8,78.8v-1.3c0-2,0-2.5-3.2-2.5c-3.2,0-3.2,0.5-3.2,2.5v9.6c0,2,0,2.5,3.2,2.5c3.2,0,3.2-0.5,3.2-2.5
			v-3.9h-3.2v-1.9h5.4v6.3c0,2.7,0,3.9-5.4,3.9c-5.4,0-5.4-1.2-5.4-3.9V76.9c0-2.7,0-3.9,5.4-3.9c5.4,0,5.4,1.2,5.4,3.9v1.9H297.8z"
			/>
		<path class="st1" d="M312,78.8v-1.3c0-2,0-2.5-3.2-2.5s-3.2,0.5-3.2,2.5v2.7l8.6,2.9v4.6c0,2.7,0,3.9-5.4,3.9
			c-5.4,0-5.4-1.2-5.4-3.9v-1.9h2.1v1.3c0,2,0,2.5,3.2,2.5s3.2-0.5,3.2-2.5v-2.7l-8.6-2.9v-4.6c0-2.7,0-3.9,5.4-3.9
			c5.4,0,5.4,1.2,5.4,3.9v1.9H312z"/>
		<path class="st1" d="M320.1,90.1c0,0.8-0.6,1.4-1.4,1.4c-0.8,0-1.4-0.6-1.4-1.4c0-0.8,0.6-1.4,1.4-1.4
			C319.5,88.7,320.1,89.4,320.1,90.1z"/>
		<path class="st1" d="M331.5,73.2h2.1v14.4c0,2.7,0,3.9-5.4,3.9c-5.4,0-5.4-1.2-5.4-3.9v-5.3h2.1v4.8c0,2,0,2.5,3.2,2.5
			c3.2,0,3.2-0.5,3.2-2.5V73.2z"/>
		<path class="st1" d="M345.8,78.8v-1.3c0-2,0-2.5-3.2-2.5s-3.2,0.5-3.2,2.5v2.7l8.6,2.9v4.6c0,2.7,0,3.9-5.4,3.9
			c-5.4,0-5.4-1.2-5.4-3.9v-1.9h2.1v1.3c0,2,0,2.5,3.2,2.5s3.2-0.5,3.2-2.5v-2.7l-8.6-2.9v-4.6c0-2.7,0-3.9,5.4-3.9
			c5.4,0,5.4,1.2,5.4,3.9v1.9H345.8z"/>
	</g>
</g>
</svg>
